<svg width="37" height="64" viewBox="0 0 37 64" fill="none" xmlns="http://www.w3.org/2000/svg">
<path d="M26.8775 29.175L12.9995 25.225C11.3933 24.775 10.2753 23.3125 10.2753 21.6875C10.2753 19.65 11.9715 18 14.066 18H22.5856C24.1533 18 25.6953 18.4625 26.9803 19.3125C27.7641 19.825 28.8178 19.7 29.486 19.0625L33.9578 14.8125C34.8702 13.95 34.7417 12.5125 33.7265 11.75C30.5783 9.35 26.6462 8.0125 22.6113 8V2C22.6113 0.9 21.6861 0 20.5553 0H16.4433C15.3125 0 14.3873 0.9 14.3873 2V8H14.066C5.88061 8 -0.698581 14.8375 0.0595685 22.95C0.599268 28.7125 5.12246 33.4 10.8279 35.025L23.9991 38.775C25.6053 39.2375 26.7233 40.6875 26.7233 42.3125C26.7233 44.35 25.0271 46 22.9325 46H14.413C12.8453 46 11.3033 45.5375 10.0183 44.6875C9.23446 44.175 8.18076 44.3 7.51256 44.9375L3.04076 49.1875C2.12842 50.05 2.25692 51.4875 3.27206 52.25C6.42031 54.65 10.3524 55.9875 14.3873 56V62C14.3873 63.1 15.3125 64 16.4433 64H20.5553C21.6861 64 22.6113 63.1 22.6113 62V55.975C28.5994 55.8625 34.2148 52.4 36.1937 46.8875C38.9565 39.1875 34.3176 31.2875 26.8775 29.175Z" fill="#4070F4"/>
</svg>
