<svg width="75" height="59" viewBox="0 0 75 59" fill="none" xmlns="http://www.w3.org/2000/svg">
<path d="M75 0C67.415 0.410236 14.1264 4.40197 10.4012 33.1427C9.94858 36.2149 9.69223 39.3009 9.52377 42.3892L35.7257 21.7978C36.6412 21.0776 38.1281 21.0776 39.0436 21.7978C39.9591 22.5181 39.9591 23.6854 39.0436 24.4056L1.03053 54.2791C-0.343509 55.3589 -0.343509 57.1104 1.03053 58.1902C2.40456 59.2699 4.63261 59.2699 6.00812 58.1902L14.3769 51.6137C20.5424 51.5976 26.7036 51.3222 32.8282 50.7656C40.6623 50.1387 47.0403 47.7153 52.2493 44.2502H37.4615L58.9642 38.6175C60.6122 36.9017 62.0946 35.0787 63.4247 33.1877H51.5388L67.1454 27.056C73.2847 15.3101 74.7349 3.02607 75 0Z" fill="#4070F4"/>
</svg>
