<svg width="342" height="36" viewBox="0 0 342 36" fill="none" xmlns="http://www.w3.org/2000/svg">
<path d="M36 18.1095C36 8.10548 27.9436 0 18 0C8.05645 0 0 8.10548 0 18.1095C0 27.1482 6.58234 34.6403 15.1875 36V23.3445H10.6149V18.1095H15.1875V14.1196C15.1875 9.58126 17.873 7.0744 21.9861 7.0744C23.956 7.0744 26.0158 7.42783 26.0158 7.42783V11.8822H23.7455C21.51 11.8822 20.8125 13.2784 20.8125 14.7103V18.1095H25.8046L25.0062 23.3445H20.8125V36C29.4177 34.6403 36 27.1482 36 18.1095Z" fill="white"/>
<path d="M120.04 0C109.876 0 102 7.42828 102 17.4616C102 22.7095 104.156 27.2445 107.666 30.3773C108.272 30.9224 108.148 31.2381 108.251 34.6039C108.259 34.8396 108.324 35.0698 108.442 35.2744C108.559 35.4789 108.725 35.6516 108.925 35.7774C109.124 35.9031 109.352 35.9782 109.587 35.9959C109.822 36.0136 110.058 35.9736 110.274 35.8792C114.114 34.188 114.164 34.0544 114.815 34.2315C125.941 37.2938 138 30.1733 138 17.4616C138 7.42828 130.204 0 120.04 0ZM130.872 13.4375L125.573 21.8261C125.373 22.1416 125.11 22.4123 124.801 22.6213C124.491 22.8303 124.142 22.9731 123.774 23.0408C123.407 23.1084 123.03 23.0995 122.666 23.0145C122.302 22.9295 121.96 22.7703 121.661 22.5469L117.445 19.3916C117.257 19.2503 117.028 19.1739 116.792 19.1739C116.556 19.1739 116.327 19.2503 116.139 19.3916L110.451 23.706C109.691 24.2816 108.697 23.3722 109.209 22.5687L114.507 14.1801C114.707 13.8646 114.97 13.5938 115.28 13.3847C115.589 13.1756 115.939 13.0328 116.306 12.9651C116.673 12.8974 117.051 12.9064 117.415 12.9914C117.778 13.0765 118.121 13.2358 118.42 13.4593L122.634 16.6138C122.822 16.7552 123.052 16.8316 123.287 16.8316C123.523 16.8316 123.752 16.7552 123.94 16.6138L129.631 12.3038C130.389 11.7245 131.384 12.6333 130.872 13.4375Z" fill="white"/>
<path d="M236.143 0H207.857C205.728 0 204 1.72768 204 3.85714V32.1429C204 34.2723 205.728 36 207.857 36H236.143C238.272 36 240 34.2723 240 32.1429V3.85714C240 1.72768 238.272 0 236.143 0ZM232.213 12.7607C232.229 12.9857 232.229 13.2188 232.229 13.4438C232.229 20.4107 226.926 28.4384 217.235 28.4384C214.246 28.4384 211.473 27.5705 209.143 26.0759C209.569 26.1241 209.979 26.1402 210.413 26.1402C212.879 26.1402 215.146 25.3045 216.954 23.8902C214.639 23.842 212.695 22.3232 212.028 20.2339C212.839 20.3545 213.571 20.3545 214.406 20.1375C211.996 19.6473 210.188 17.5259 210.188 14.9625V14.8982C210.887 15.292 211.706 15.533 212.566 15.5652C211.843 15.0843 211.251 14.432 210.841 13.6665C210.432 12.9009 210.218 12.0459 210.22 11.1777C210.22 10.1973 210.477 9.29732 210.935 8.51786C213.53 11.7161 217.428 13.8054 221.799 14.0304C221.052 10.4545 223.728 7.55357 226.942 7.55357C228.461 7.55357 229.827 8.18839 230.791 9.21696C231.98 8.99196 233.121 8.55 234.134 7.94732C233.74 9.16875 232.913 10.1973 231.82 10.8482C232.88 10.7357 233.909 10.4384 234.857 10.0286C234.142 11.0813 233.242 12.0134 232.213 12.7607Z" fill="white"/>
<path d="M324.004 8.77005C318.896 8.77005 314.776 12.891 314.776 18C314.776 23.109 318.896 27.2299 324.004 27.2299C329.112 27.2299 333.232 23.109 333.232 18C333.232 12.891 329.112 8.77005 324.004 8.77005ZM324.004 24.0007C320.703 24.0007 318.005 21.3096 318.005 18C318.005 14.6904 320.695 11.9993 324.004 11.9993C327.313 11.9993 330.003 14.6904 330.003 18C330.003 21.3096 327.305 24.0007 324.004 24.0007ZM335.762 8.3925C335.762 9.58942 334.798 10.5454 333.609 10.5454C332.413 10.5454 331.457 9.58139 331.457 8.3925C331.457 7.20361 332.421 6.23965 333.609 6.23965C334.798 6.23965 335.762 7.20361 335.762 8.3925ZM341.874 10.5775C341.737 7.69363 341.078 5.13913 338.966 3.03447C336.862 0.929822 334.308 0.271115 331.425 0.12652C328.453 -0.0421734 319.547 -0.0421734 316.575 0.12652C313.7 0.263082 311.146 0.92179 309.034 3.02644C306.922 5.13109 306.271 7.6856 306.126 10.5695C305.958 13.5417 305.958 22.4503 306.126 25.4225C306.263 28.3064 306.922 30.8609 309.034 32.9655C311.146 35.0702 313.692 35.7289 316.575 35.8735C319.547 36.0422 328.453 36.0422 331.425 35.8735C334.308 35.7369 336.862 35.0782 338.966 32.9655C341.07 30.8609 341.729 28.3064 341.874 25.4225C342.042 22.4503 342.042 13.5497 341.874 10.5775ZM338.035 28.6116C337.408 30.1861 336.195 31.3991 334.613 32.0337C332.244 32.9736 326.622 32.7567 324.004 32.7567C321.386 32.7567 315.756 32.9655 313.395 32.0337C311.821 31.4071 310.608 30.1941 309.973 28.6116C309.034 26.2419 309.251 20.6188 309.251 18C309.251 15.3812 309.042 9.75008 309.973 7.38837C310.6 5.8139 311.813 4.60091 313.395 3.96631C315.764 3.02644 321.386 3.24333 324.004 3.24333C326.622 3.24333 332.252 3.03447 334.613 3.96631C336.187 4.59288 337.4 5.80587 338.035 7.38837C338.974 9.75812 338.757 15.3812 338.757 18C338.757 20.6188 338.974 26.2499 338.035 28.6116Z" fill="white"/>
</svg>
