<svg width="125" height="141" viewBox="0 0 125 141" fill="none" xmlns="http://www.w3.org/2000/svg">
<path d="M30.7689 136.807V133.574H28.8558C24.7454 133.574 21.2461 131.738 18.3131 128.042C14.4197 123.136 13.0908 117.139 14.2852 109.865C14.8782 106.254 16.1474 101.061 17.3277 97.4172C17.8723 95.7357 18.273 94.3034 18.2182 94.2342C18.1633 94.1649 17.2444 93.7264 16.1762 93.2597C12.2023 91.5234 8.48729 87.4036 6.64267 82.6874C4.93659 78.3254 4.91029 78.0015 4.90623 61.2931L4.90255 46.4366H2.45126H0L0.127839 45.4359C0.198117 44.8855 0.375805 43.3267 0.522642 41.9719C1.37804 34.0796 3.75763 26.8572 6.93989 22.4947L7.89598 21.184L7.23818 19.3346C5.40361 14.1764 6.42242 7.73369 9.66377 3.99571C12.9521 0.203607 17.3929 -0.703344 21.3838 1.6021C23.1071 2.59761 25.4064 5.36258 26.2945 7.50728L26.9865 9.17833L30.8298 9.17907L34.6732 9.1798V4.71514V0.250488H62.4917H90.3102V4.71514V9.1798L94.1535 9.17906L97.9968 9.17832L98.6888 7.50727C99.0694 6.58819 100.027 5.05869 100.816 4.10838C108.071 -4.62302 119.72 2.89161 118.576 15.5647C118.481 16.6209 118.107 18.3173 117.745 19.3345L117.087 21.184L118.043 22.4947C121.355 27.0346 123.783 34.7018 124.601 43.2035C124.682 44.0503 124.805 45.1241 124.874 45.5898L125 46.4366H108.143C94.8179 46.4366 91.2872 46.3559 91.2907 46.0517C91.2935 45.84 91.4547 44.2505 91.6498 42.5195C92.5973 34.109 94.8001 27.1852 97.8821 22.9302L99.1403 21.1931L98.6078 19.805L98.0753 18.417H94.1927H90.3102V22.7123V27.0077L88.907 27.1001L87.5039 27.1925L87.3703 34.4283C87.225 42.2939 87.1235 42.9702 85.6532 45.8611C84.0616 48.9908 81.2662 51.3189 78.2609 52.0177L76.6449 52.3934L76.6505 53.6487C76.656 54.8982 76.6664 54.9117 78.7856 56.4906C87.5244 63.0016 96.2901 73.4781 101.878 84.0897C106.173 92.2474 109.386 102.025 110.701 110.943C112.475 122.977 105.546 133.542 95.8613 133.569L93.9702 133.575V136.808V140.041H90.3098H86.6495V136.808V133.575H62.3696H38.0895V136.808V140.041H34.4291H30.7688L30.7689 136.807ZM65.3845 123.093C70.7923 122.237 75.9432 118.891 79.744 113.764C81.6904 111.139 82.5251 109.579 83.8436 106.101C85.5723 101.542 86.0316 98.8652 86.0241 93.3924C86.0149 86.9364 85.0793 82.66 82.5538 77.5366C78.5368 69.3877 71.4143 64.075 63.6933 63.4685C54.0755 62.7131 44.7807 69.8763 40.7215 81.1723C39.3159 85.0839 38.758 88.5651 38.7632 93.3924C38.7669 97.0148 38.8675 98.1836 39.3922 100.713C42.4343 115.376 53.5682 124.962 65.3845 123.093ZM59.9324 113.867C54.7057 112.68 50.2797 108.645 47.9223 102.918C46.5518 99.5882 46.0785 97.1434 46.0785 93.3924C46.0785 87.4287 47.6049 82.8496 51.0082 78.6038C54.8138 73.856 60.2496 71.7575 65.4292 73.0362C73.5478 75.0406 79.2354 84.1898 78.7535 94.4701C78.5939 97.8762 78.1418 100.003 76.9865 102.784C74.7641 108.132 71.0171 111.931 66.5181 113.398C64.6668 114.002 61.5146 114.226 59.9324 113.867ZM63.5478 109.446C64.5962 108.893 65.176 107.719 65.176 106.151C65.176 104.374 63.9475 102.783 62.5771 102.785C60.377 102.787 59.0444 105.24 59.959 107.603C60.2409 108.331 60.7466 108.995 61.2716 109.326C62.3008 109.975 62.5219 109.986 63.5478 109.446ZM56.8132 105.361C58.2547 104.227 58.407 101.585 57.1241 99.9661C56.5579 99.2516 56.2168 99.0887 55.2875 99.0887C54.3149 99.0887 54.0235 99.2435 53.3165 100.136C50.9477 103.125 53.9514 107.614 56.8132 105.361ZM71.2236 105.382C71.8866 104.796 72.497 103.372 72.4957 102.414C72.4939 101.296 71.5873 99.7083 70.6763 99.228C68.8054 98.2416 66.8841 99.9373 66.8841 102.575C66.8841 103.522 67.0556 103.985 67.7138 104.816C68.4047 105.687 68.7222 105.863 69.6117 105.863C70.1992 105.863 70.9246 105.646 71.2236 105.382ZM54.0974 95.8865C54.7882 95.0147 54.9271 94.614 54.9271 93.4917C54.9271 91.9526 54.4758 90.9742 53.4603 90.3116C52.5073 89.6898 51.7879 89.7344 50.825 90.4752C49.8558 91.2208 49.262 92.8298 49.4705 94.1453C49.698 95.5803 51.0594 96.9333 52.2757 96.9333C53.0785 96.9333 53.426 96.7337 54.0974 95.8865ZM73.8126 96.4665C75.8312 95.2578 75.9243 91.5945 73.9687 90.3185C71.4812 88.6954 68.8847 91.9292 70.1658 95.055C70.5294 95.9422 71.7839 96.9139 72.5818 96.9263C72.8299 96.9298 73.3838 96.7233 73.8126 96.4665ZM56.0692 87.6961C56.2728 87.6961 56.758 87.2658 57.1474 86.7398C57.7258 85.9585 57.8553 85.5121 57.8553 84.3003C57.8553 83.0545 57.7351 82.6653 57.1045 81.8696C56.4726 81.0723 56.1663 80.9222 55.1711 80.9222C54.1869 80.9222 53.8678 81.0745 53.2684 81.8308C51.7065 83.8017 52.2805 86.9047 54.3518 87.6872C54.7353 87.8321 55.1953 87.8933 55.3741 87.8234C55.5528 87.7534 55.8656 87.6961 56.0692 87.6961ZM71.2823 87.0751C73.9353 84.6914 71.4158 79.3331 68.471 81.0963C67.4448 81.7108 66.8841 82.9058 66.8841 84.4786C66.8841 86.1529 68.171 87.6961 69.5673 87.6961C70.2028 87.6961 70.8533 87.4606 71.2823 87.0751ZM64.497 82.795C66.175 80.4254 64.519 76.5236 62.0499 77.0292C61.0184 77.2404 59.8876 78.5294 59.6781 79.7327C59.4482 81.0538 59.9881 82.727 60.8698 83.4261C62.0122 84.3319 63.605 84.0548 64.497 82.795ZM24.0473 82.1073C27.4875 75.8298 32.5718 69.0608 37.8224 63.7674C40.3442 61.2252 45.7136 56.5712 47.3014 55.5515C48.0105 55.0961 48.0945 54.902 48.0945 53.7188V52.3955L46.6013 52.0451C43.5541 51.3301 40.6592 48.9543 39.1006 45.8894C37.6273 42.9923 37.5234 42.3033 37.3734 34.4282L37.2355 27.1924L35.9544 27.0993L34.6733 27.0062V22.7116V18.4169H30.7907H26.9081L26.3756 19.805L25.8431 21.193L27.0881 22.912C30.1518 27.1418 32.3918 34.1561 33.3252 42.443C33.5249 44.216 33.6902 45.8399 33.6927 46.0516C33.6964 46.3538 31.3651 46.4365 22.8382 46.4365H11.9793L11.9802 59.7535C11.981 67.0778 12.0863 73.877 12.2142 74.8627C12.5049 77.1025 13.3703 79.5219 14.4205 81.0312C16.1378 83.4992 18.8915 85.2133 21.1296 85.2073L22.3497 85.2038L24.0473 82.1073ZM48.0945 40.1245V37.1993H62.3697H76.645V40.1578V43.1163L77.3012 42.9085C77.6621 42.7943 78.2677 42.4219 78.647 42.0811C79.9592 40.9021 80.0613 40.273 80.0613 33.3658V27.0384H62.3563H44.6513L44.7257 33.5814C44.7961 39.7666 44.8297 40.1768 45.3414 41.082C45.8594 41.9982 47.1448 43.0278 47.7894 43.0426C48.0124 43.0472 48.0945 42.263 48.0945 40.1245Z" fill="#F0F8FF"/>
</svg>
